ply
format ascii 1.0
obj_info pringles-00000.jpg
obj_info pringles-00001.jpg
obj_info pringles-00002.jpg
obj_info pringles-00003.jpg
obj_info pringles-00004.jpg
obj_info pringles-00005.jpg
obj_info pringles-00006.jpg
obj_info pringles-00007.jpg
element vertex 130
property float x
property float y
property float z
property float nx
property float ny
property float nz
element face 96
property list uchar uint vertex_indices
element pass 8
property list uchar uint face_indices
property float m0
property float m1
property float m2
property float m3
property float m4
property float m5
property float m6
property float m7
property float m8
property float m9
property float m10
property float m11
property float m12
property float m13
property float m14
property float m15
property float x
property float y
property float w
property float h
property uchar tex_index
end_header
0.000000 0.000000 -0.115500 0.000000 0.000000 -1.000000
0.026870 0.026870 -0.115500 0.000000 0.000000 -1.000000
0.031596 0.021112 -0.115500 0.000000 0.000000 -1.000000
0.000000 0.000000 0.115500 0.000000 0.000000 1.000000
0.031596 0.021112 0.115500 0.000000 0.000000 1.000000
0.026870 0.026870 0.115500 0.000000 0.000000 1.000000
0.035107 0.014542 -0.115500 0.000000 0.000000 -1.000000
0.035107 0.014542 0.115500 0.000000 0.000000 1.000000
0.037270 0.007413 -0.115500 0.000000 0.000000 -1.000000
0.037270 0.007413 0.115500 0.000000 0.000000 1.000000
0.038000 0.000000 -0.115500 0.000000 0.000000 -1.000000
0.038000 -0.000000 0.115500 0.000000 0.000000 1.000000
0.037270 -0.007413 -0.115500 0.000000 0.000000 -1.000000
0.037270 -0.007413 0.115500 0.000000 0.000000 1.000000
0.035107 -0.014542 -0.115500 0.000000 0.000000 -1.000000
0.035107 -0.014542 0.115500 0.000000 0.000000 1.000000
0.031596 -0.021112 -0.115500 0.000000 0.000000 -1.000000
0.031596 -0.021112 0.115500 0.000000 0.000000 1.000000
0.026870 -0.026870 -0.115500 0.000000 0.000000 -1.000000
0.026870 -0.026870 0.115500 0.000000 0.000000 1.000000
0.021112 -0.031596 -0.115500 0.000000 0.000000 -1.000000
0.021112 -0.031596 0.115500 0.000000 0.000000 1.000000
0.014542 -0.035107 -0.115500 0.000000 0.000000 -1.000000
0.014542 -0.035107 0.115500 0.000000 0.000000 1.000000
0.007413 -0.037270 -0.115500 0.000000 0.000000 -1.000000
0.007413 -0.037270 0.115500 0.000000 0.000000 1.000000
-0.000000 -0.038000 -0.115500 0.000000 0.000000 -1.000000
0.000000 -0.038000 0.115500 0.000000 0.000000 1.000000
-0.007413 -0.037270 -0.115500 0.000000 0.000000 -1.000000
-0.007413 -0.037270 0.115500 0.000000 0.000000 1.000000
-0.014542 -0.035107 -0.115500 0.000000 0.000000 -1.000000
-0.014542 -0.035107 0.115500 0.000000 0.000000 1.000000
-0.021112 -0.031596 -0.115500 0.000000 0.000000 -1.000000
-0.021112 -0.031596 0.115500 0.000000 0.000000 1.000000
-0.026870 -0.026870 -0.115500 0.000000 0.000000 -1.000000
-0.026870 -0.026870 0.115500 0.000000 0.000000 1.000000
-0.031596 -0.021112 -0.115500 0.000000 0.000000 -1.000000
-0.031596 -0.021112 0.115500 0.000000 0.000000 1.000000
-0.035107 -0.014542 -0.115500 0.000000 0.000000 -1.000000
-0.035107 -0.014542 0.115500 0.000000 0.000000 1.000000
-0.037270 -0.007413 -0.115500 0.000000 0.000000 -1.000000
-0.037270 -0.007414 0.115500 0.000000 0.000000 1.000000
-0.038000 0.000000 -0.115500 0.000000 0.000000 -1.000000
-0.038000 -0.000000 0.115500 0.000000 0.000000 1.000000
-0.037270 0.007413 -0.115500 0.000000 0.000000 -1.000000
-0.037270 0.007413 0.115500 0.000000 0.000000 1.000000
-0.035107 0.014542 -0.115500 0.000000 0.000000 -1.000000
-0.035107 0.014542 0.115500 0.000000 0.000000 1.000000
-0.031596 0.021112 -0.115500 0.000000 0.000000 -1.000000
-0.031596 0.021111 0.115500 0.000000 0.000000 1.000000
-0.026870 0.026870 -0.115500 0.000000 0.000000 -1.000000
-0.026870 0.026870 0.115500 0.000000 0.000000 1.000000
-0.021112 0.031596 -0.115500 0.000000 0.000000 -1.000000
-0.021112 0.031596 0.115500 0.000000 0.000000 1.000000
-0.014542 0.035107 -0.115500 0.000000 0.000000 -1.000000
-0.014542 0.035107 0.115500 0.000000 0.000000 1.000000
-0.007413 0.037270 -0.115500 0.000000 0.000000 -1.000000
-0.007414 0.037270 0.115500 0.000000 0.000000 1.000000
0.000000 0.038000 -0.115500 0.000000 0.000000 -1.000000
-0.000000 0.038000 0.115500 0.000000 0.000000 1.000000
0.007413 0.037270 -0.115500 0.000000 0.000000 -1.000000
0.007413 0.037270 0.115500 0.000000 0.000000 1.000000
0.014542 0.035107 -0.115500 0.000000 0.000000 -1.000000
0.014542 0.035108 0.115500 0.000000 0.000000 1.000000
0.021112 0.031596 -0.115500 0.000000 0.000000 -1.000000
0.021111 0.031596 0.115500 0.000000 0.000000 1.000000
0.026870 0.026870 -0.115500 0.707083 0.707083 0.000000
0.026870 0.026870 0.115500 0.707083 0.707083 0.000000
0.031596 0.021112 0.115500 0.831446 0.555559 0.000000
0.031596 0.021112 -0.115500 0.831446 0.555559 0.000000
0.035107 0.014542 0.115500 0.923856 0.382672 0.000000
0.035107 0.014542 -0.115500 0.923856 0.382672 0.000000
0.037270 0.007413 0.115500 0.980773 0.195074 0.000000
0.037270 0.007413 -0.115500 0.980773 0.195074 0.000000
0.038000 -0.000000 0.115500 1.000000 0.000000 0.000000
0.038000 0.000000 -0.115500 1.000000 0.000000 0.000000
0.037270 -0.007413 0.115500 0.980773 -0.195074 0.000000
0.037270 -0.007413 -0.115500 0.980773 -0.195074 0.000000
0.035107 -0.014542 0.115500 0.923856 -0.382672 0.000000
0.035107 -0.014542 -0.115500 0.923856 -0.382672 0.000000
0.031596 -0.021112 0.115500 0.831446 -0.555559 0.000000
0.031596 -0.021112 -0.115500 0.831446 -0.555559 0.000000
0.026870 -0.026870 0.115500 0.707083 -0.707083 0.000000
0.026870 -0.026870 -0.115500 0.707083 -0.707083 0.000000
0.021112 -0.031596 0.115500 0.555559 -0.831446 0.000000
0.021112 -0.031596 -0.115500 0.555559 -0.831446 0.000000
0.014542 -0.035107 0.115500 0.382672 -0.923856 0.000000
0.014542 -0.035107 -0.115500 0.382672 -0.923856 0.000000
0.007413 -0.037270 0.115500 0.195074 -0.980773 0.000000
0.007413 -0.037270 -0.115500 0.195074 -0.980773 0.000000
0.000000 -0.038000 0.115500 0.000000 -1.000000 0.000000
-0.000000 -0.038000 -0.115500 0.000000 -1.000000 0.000000
-0.007413 -0.037270 0.115500 -0.195074 -0.980773 0.000000
-0.007413 -0.037270 -0.115500 -0.195074 -0.980773 0.000000
-0.014542 -0.035107 0.115500 -0.382672 -0.923856 0.000000
-0.014542 -0.035107 -0.115500 -0.382672 -0.923856 0.000000
-0.021112 -0.031596 0.115500 -0.555559 -0.831446 0.000000
-0.021112 -0.031596 -0.115500 -0.555559 -0.831446 0.000000
-0.026870 -0.026870 0.115500 -0.707083 -0.707083 0.000000
-0.026870 -0.026870 -0.115500 -0.707083 -0.707083 0.000000
-0.031596 -0.021112 0.115500 -0.831446 -0.555559 0.000000
-0.031596 -0.021112 -0.115500 -0.831446 -0.555559 0.000000
-0.035107 -0.014542 0.115500 -0.923856 -0.382672 0.000000
-0.035107 -0.014542 -0.115500 -0.923856 -0.382672 0.000000
-0.037270 -0.007414 0.115500 -0.980773 -0.195074 0.000000
-0.037270 -0.007413 -0.115500 -0.980773 -0.195074 0.000000
-0.038000 -0.000000 0.115500 -1.000000 0.000000 0.000000
-0.038000 0.000000 -0.115500 -1.000000 0.000000 0.000000
-0.037270 0.007413 0.115500 -0.980773 0.195074 0.000000
-0.037270 0.007413 -0.115500 -0.980773 0.195074 0.000000
-0.035107 0.014542 0.115500 -0.923856 0.382672 0.000000
-0.035107 0.014542 -0.115500 -0.923856 0.382672 0.000000
-0.031596 0.021111 0.115500 -0.831446 0.555559 0.000000
-0.031596 0.021112 -0.115500 -0.831446 0.555559 0.000000
-0.026870 0.026870 0.115500 -0.707083 0.707083 0.000000
-0.026870 0.026870 -0.115500 -0.707083 0.707083 0.000000
-0.021112 0.031596 0.115500 -0.555559 0.831446 0.000000
-0.021112 0.031596 -0.115500 -0.555559 0.831446 0.000000
-0.014542 0.035107 0.115500 -0.382672 0.923856 0.000000
-0.014542 0.035107 -0.115500 -0.382672 0.923856 0.000000
-0.007414 0.037270 0.115500 -0.195074 0.980773 0.000000
-0.007413 0.037270 -0.115500 -0.195074 0.980773 0.000000
-0.000000 0.038000 0.115500 0.000000 1.000000 0.000000
0.000000 0.038000 -0.115500 0.000000 1.000000 0.000000
0.007413 0.037270 0.115500 0.195074 0.980773 0.000000
0.007413 0.037270 -0.115500 0.195074 0.980773 0.000000
0.014542 0.035108 0.115500 0.382672 0.923856 0.000000
0.014542 0.035107 -0.115500 0.382672 0.923856 0.000000
0.021111 0.031596 0.115500 0.555559 0.831446 0.000000
0.021112 0.031596 -0.115500 0.555559 0.831446 0.000000
3 0 1 2
3 3 4 5
3 0 2 6
3 3 7 4
3 0 6 8
3 3 9 7
3 0 8 10
3 3 11 9
3 0 10 12
3 3 13 11
3 0 12 14
3 3 15 13
3 0 14 16
3 3 17 15
3 0 16 18
3 3 19 17
3 0 18 20
3 3 21 19
3 0 20 22
3 3 23 21
3 0 22 24
3 3 25 23
3 0 24 26
3 3 27 25
3 0 26 28
3 3 29 27
3 0 28 30
3 3 31 29
3 0 30 32
3 3 33 31
3 0 32 34
3 3 35 33
3 0 34 36
3 3 37 35
3 0 36 38
3 3 39 37
3 0 38 40
3 3 41 39
3 0 40 42
3 3 43 41
3 0 42 44
3 3 45 43
3 0 44 46
3 3 47 45
3 0 46 48
3 3 49 47
3 0 48 50
3 3 51 49
3 0 50 52
3 3 53 51
3 0 52 54
3 3 55 53
3 0 54 56
3 3 57 55
3 0 56 58
3 3 59 57
3 0 58 60
3 3 61 59
3 0 60 62
3 3 63 61
3 0 62 64
3 3 65 63
3 1 0 64
3 3 5 65
4 66 67 68 69
4 69 68 70 71
4 71 70 72 73
4 73 72 74 75
4 75 74 76 77
4 77 76 78 79
4 79 78 80 81
4 81 80 82 83
4 83 82 84 85
4 85 84 86 87
4 87 86 88 89
4 89 88 90 91
4 91 90 92 93
4 93 92 94 95
4 95 94 96 97
4 97 96 98 99
4 99 98 100 101
4 101 100 102 103
4 103 102 104 105
4 105 104 106 107
4 107 106 108 109
4 109 108 110 111
4 111 110 112 113
4 113 112 114 115
4 115 114 116 117
4 117 116 118 119
4 119 118 120 121
4 121 120 122 123
4 123 122 124 125
4 125 124 126 127
4 127 126 128 129
4 67 66 129 128
8 73 74 75 76 77 78 79 80 1.623077 0.043992 -0.151335 -0.145400 0.239316 -0.289051 1.020181 0.980174 -0.001029 2.167873 0.140096 0.134602 0.257250 -0.063938 0.386611 0.567528 0.677076 0.205245 0.097157 0.475840 0
5 68 69 70 71 72 0.713322 0.202943 -0.932641 -0.896067 1.476702 -0.029243 0.452380 0.434640 -0.046644 2.177870 0.093977 0.090292 0.270838 -0.065527 0.390107 0.570887 0.713110 0.203577 0.075004 0.474486 1
5 64 65 66 67 95 -0.779670 0.246310 -0.907663 -0.872068 1.443240 0.176203 -0.488600 -0.469439 -0.028741 2.166436 0.143936 0.138291 0.280735 -0.072595 0.395108 0.575692 0.721823 0.201683 0.075621 0.468951 2
5 90 91 92 93 94 -1.640614 0.004047 0.004422 0.004249 -0.004781 0.387969 -1.024131 -0.983969 0.003944 2.152818 0.185562 0.178285 0.288948 -0.076818 0.392222 0.572919 0.726322 0.198287 0.075175 0.469460 3
6 84 85 86 87 88 89 -0.742374 -0.341545 0.914121 0.878274 -1.463028 0.159905 -0.463856 -0.445666 -0.009102 2.154748 0.180325 0.173254 0.297707 -0.082877 0.402596 0.582886 0.722888 0.197952 0.085864 0.461452 4
32 1 3 5 7 9 11 13 15 17 19 21 23 25 27 29 31 33 35 37 39 41 43 45 47 49 51 53 55 57 59 61 63 -1.148198 -1.502659 -0.203764 -0.195773 1.103620 -1.184898 -0.525857 -0.505235 -0.394105 1.059808 -0.874788 -0.840482 0.286271 -0.215418 0.523605 0.699150 0.647648 0.358356 0.106368 0.125070 5
32 0 2 4 6 8 10 12 14 16 18 20 22 24 26 28 30 32 34 36 38 40 42 44 46 48 50 52 54 56 58 60 62 -1.376379 1.188079 0.037526 0.036055 0.801291 1.705168 -0.407933 -0.391935 0.393911 0.682664 0.956808 0.919286 0.311335 -0.094038 0.508372 0.684515 0.674763 0.286557 0.111958 0.130573 6
3 81 82 83 1.413315 -0.160861 0.522075 0.501602 -0.833172 -0.261691 0.888310 0.853474 0.004298 2.165826 0.147109 0.141340 0.269285 -0.077203 0.420683 0.600264 0.680808 0.212084 0.038912 0.445416 7
